<svg xmlns="http://www.w3.org/2000/svg" xmlns:xlink="http://www.w3.org/1999/xlink" width="106.012" height="33.921" viewBox="0 0 106.012 33.921">
  <defs>
    <clipPath id="clip-path">
      <rect id="Rectangle_11" data-name="Rectangle 11" width="106.012" height="33.921" fill="none"/>
    </clipPath>
    <clipPath id="clip-path-2">
      <path id="Path_2" data-name="Path 2" d="M10.448,1.628C6.69,5.138,0,11.534,0,11.534l3.312,3.535s3.435,3.462,7.031.112L21.352,4.889,18.068,1.378A6.5,6.5,0,0,0,14.263,0a5.482,5.482,0,0,0-3.815,1.628" fill="none"/>
    </clipPath>
    <linearGradient id="linear-gradient" y1="1.83" x2="0.047" y2="1.83" gradientUnits="objectBoundingBox">
      <stop offset="0" stop-color="#ff7a00"/>
      <stop offset="1" stop-color="#fb0012"/>
    </linearGradient>
    <clipPath id="clip-path-3">
      <path id="Path_3" data-name="Path 3" d="M32.606,9.859l4.685,4.921s3.676,4.148,7.089.735c3.268-3.269,3.6-3.614,3.6-3.614L42.744,6.45,35.23,6.393Z" fill="none"/>
    </clipPath>
    <linearGradient id="linear-gradient-2" x1="-1.531" y1="1.591" x2="-1.481" y2="1.591" xlink:href="#linear-gradient"/>
    <clipPath id="clip-path-4">
      <rect id="Rectangle_7" data-name="Rectangle 7" width="106.012" height="33.921" transform="translate(0 0)" fill="none"/>
    </clipPath>
    <clipPath id="clip-path-5">
      <rect id="Rectangle_6" data-name="Rectangle 6" width="15.378" height="10.47" transform="translate(32.606 6.392)" fill="none"/>
    </clipPath>
    <clipPath id="clip-path-6">
      <path id="Path_4" data-name="Path 4" d="M32.606,9.859l4.685,4.921s3.676,4.147,7.089.735c3.286-3.289,3.6-3.614,3.6-3.614l-5.24-5.45L35.23,6.392Z" fill="none"/>
    </clipPath>
    <linearGradient id="linear-gradient-3" x1="-1.533" y1="1.581" x2="-1.483" y2="1.581" gradientUnits="objectBoundingBox">
      <stop offset="0" stop-color="#fff"/>
      <stop offset="1" stop-color="#241f20"/>
    </linearGradient>
    <clipPath id="clip-path-7">
      <path id="Path_5" data-name="Path 5" d="M23.379,5.9,8.5,20.034l3.376,3.632c3.376,3.627,6.9.3,6.9.3s8.358-8.15,14.071-13.593S45.567,9.31,45.567,9.31l-6.277-6.4A7.862,7.862,0,0,0,33.62.433C28.234.433,23.379,5.9,23.379,5.9" fill="none"/>
    </clipPath>
    <linearGradient id="linear-gradient-4" x1="-0.229" y1="1.246" x2="-0.202" y2="1.246" xlink:href="#linear-gradient"/>
    <clipPath id="clip-path-8">
      <path id="Path_6" data-name="Path 6" d="M29.334,16.785C25.78,20.213,17.225,28.768,17.225,28.768l3.154,3.15a6.257,6.257,0,0,0,3.982,2h.071A4.041,4.041,0,0,0,27.3,32.6L39.618,20.274l-3.344-3.489a5.551,5.551,0,0,0-3.561-1.524,4.8,4.8,0,0,0-3.379,1.524" fill="none"/>
    </clipPath>
    <linearGradient id="linear-gradient-5" x1="-0.769" y1="1" x2="-0.725" y2="1" xlink:href="#linear-gradient"/>
  </defs>
  <g id="Group_21" data-name="Group 21" clip-path="url(#clip-path)">
    <g id="Group_5" data-name="Group 5">
      <g id="Group_4" data-name="Group 4" clip-path="url(#clip-path-2)">
        <rect id="Rectangle_3" data-name="Rectangle 3" width="21.352" height="18.531" transform="translate(0 0)" fill="url(#linear-gradient)"/>
      </g>
    </g>
    <g id="Group_7" data-name="Group 7">
      <g id="Group_6" data-name="Group 6" clip-path="url(#clip-path-3)">
        <rect id="Rectangle_4" data-name="Rectangle 4" width="19.84" height="19.431" transform="matrix(0.775, -0.631, 0.631, 0.775, 26.468, 11.392)" fill="url(#linear-gradient-2)"/>
      </g>
    </g>
    <g id="Group_14" data-name="Group 14">
      <g id="Group_13" data-name="Group 13" clip-path="url(#clip-path-4)">
        <g id="Group_12" data-name="Group 12" opacity="0.5" style="mix-blend-mode: multiply;isolation: isolate">
          <g id="Group_11" data-name="Group 11">
            <g id="Group_10" data-name="Group 10" clip-path="url(#clip-path-5)">
              <g id="Group_9" data-name="Group 9">
                <g id="Group_8" data-name="Group 8" clip-path="url(#clip-path-6)">
                  <rect id="Rectangle_5" data-name="Rectangle 5" width="19.819" height="19.596" transform="translate(26.377 11.965) rotate(-41.82)" fill="url(#linear-gradient-3)"/>
                </g>
              </g>
            </g>
          </g>
        </g>
      </g>
    </g>
    <g id="Group_16" data-name="Group 16">
      <g id="Group_15" data-name="Group 15" clip-path="url(#clip-path-7)">
        <rect id="Rectangle_8" data-name="Rectangle 8" width="37.067" height="26.861" transform="translate(8.5 0.432)" fill="url(#linear-gradient-4)"/>
      </g>
    </g>
    <g id="Group_18" data-name="Group 18">
      <g id="Group_17" data-name="Group 17" clip-path="url(#clip-path-8)">
        <rect id="Rectangle_9" data-name="Rectangle 9" width="22.393" height="18.66" transform="translate(17.225 15.261)" fill="url(#linear-gradient-5)"/>
      </g>
    </g>
    <g id="Group_20" data-name="Group 20">
      <g id="Group_19" data-name="Group 19" clip-path="url(#clip-path-4)">
        <path id="Path_7" data-name="Path 7" d="M57.957,29.313H52.872a.751.751,0,0,1-.588-.24.809.809,0,0,1-.22-.574V5.385a.825.825,0,0,1,.22-.575.765.765,0,0,1,.588-.235h5.085a.78.78,0,0,1,.571.235.79.79,0,0,1,.237.575V28.5a.775.775,0,0,1-.237.574.766.766,0,0,1-.571.24" fill="#2a317d"/>
        <path id="Path_8" data-name="Path 8" d="M67.937,11.636v1.405a.771.771,0,0,0,.237.571.783.783,0,0,0,.573.235h9.139a.808.808,0,0,1,.811.813V19.4a.779.779,0,0,1-.236.573.768.768,0,0,1-.575.235H68.747a.814.814,0,0,0-.81.818V28.5a.789.789,0,0,1-.234.573.78.78,0,0,1-.575.24H62.044a.769.769,0,0,1-.573-.24.779.779,0,0,1-.235-.573V5.351a.8.8,0,0,1,.235-.575.781.781,0,0,1,.573-.237H79.239a.809.809,0,0,1,.812.82v4.659a.811.811,0,0,1-.812.815H68.747a.8.8,0,0,0-.573.235.774.774,0,0,0-.237.568" fill="#2a317d"/>
        <path id="Path_9" data-name="Path 9" d="M105.9,22.746a19.326,19.326,0,0,1-2.167,2.882,12.438,12.438,0,0,1-2.656,2.206,12.678,12.678,0,0,1-3.266,1.413,14.645,14.645,0,0,1-3.959.506,12.728,12.728,0,0,1-5.076-1.018A13.544,13.544,0,0,1,84.635,26a12.611,12.611,0,0,1-2.79-4.062,12.688,12.688,0,0,1,0-9.95,12.652,12.652,0,0,1,2.79-4.059,13.55,13.55,0,0,1,4.146-2.742,12.759,12.759,0,0,1,5.076-1.013,14.6,14.6,0,0,1,4.028.509,12.31,12.31,0,0,1,3.249,1.42,12.1,12.1,0,0,1,2.621,2.216,20.723,20.723,0,0,1,2.15,2.862.641.641,0,0,1,.068.573.711.711,0,0,1-.407.44l-4.805,1.895a.871.871,0,0,1-.676,0,1.024,1.024,0,0,1-.509-.407,7.153,7.153,0,0,0-2.367-2.386,6.447,6.447,0,0,0-3.352-.83A5.56,5.56,0,0,0,91.438,11a6.692,6.692,0,0,0-1.981,1.442,6.718,6.718,0,0,0-1.792,4.53,6.549,6.549,0,0,0,1.792,4.515,6.8,6.8,0,0,0,1.981,1.424,5.558,5.558,0,0,0,2.419.541,6.471,6.471,0,0,0,3.369-.9,6.926,6.926,0,0,0,2.384-2.316,1.042,1.042,0,0,1,.491-.409.858.858,0,0,1,.66,0l4.805,1.9a.716.716,0,0,1,.407.424.7.7,0,0,1-.068.592" fill="#2a317d"/>
      </g>
    </g>
  </g>
</svg>
